{
  "asset": {
    "version": "2.0",
    "generator": "GLTFExporter"
  },
  "scenes": [
    {
      "name": "Scene",
      "nodes": [
        7
      ]
    }
  ],
  "scene": 0,
  "nodes": [
    {
      "matrix": [
        -1,
        0,
        -1.2246467991473532e-16,
        0,
        0,
        1,
        0,
        0,
        1.2246467991473532e-16,
        0,
        -1,
        0,
        0,
        0,
        0,
        1
      ],
      "name": "Object003_01_-_Default_0",
      "extras": {
        "name": "Object003_01 - Default_0"
      },
      "mesh": 0
    },
    {
      "matrix": [
        -1,
        0,
        -1.2246467991473532e-16,
        0,
        0,
        1,
        0,
        0,
        1.2246467991473532e-16,
        0,
        -1,
        0,
        0,
        0,
        0,
        1
      ],
      "name": "Object003_02_-_Default_0",
      "extras": {
        "name": "Object003_02 - Default_0"
      },
      "mesh": 1
    },
    {
      "matrix": [
        1.629206842768127e-7,
        -2.6469779601696883e-23,
        0.9999999999999867,
        0,
        -1.6292068488171135e-7,
        0.9999999999999866,
        2.654314950294382e-14,
        0,
        -0.9999999999999734,
        -1.629206848817135e-7,
        1.629206842768127e-7,
        0,
        -3.184427157520986e-7,
        58.53681182861328,
        7.285122394561768,
        1
      ],
      "name": "Object003",
      "extras": {
        "name": "Object003"
      },
      "children": [
        0,
        1
      ]
    },
    {
      "name": "RootNode",
      "extras": {
        "name": "RootNode"
      },
      "children": [
        2
      ]
    },
    {
      "matrix": [
        1,
        0,
        0,
        0,
        0,
        2.220446049250313e-16,
        1,
        0,
        0,
        -1,
        2.220446049250313e-16,
        0,
        0,
        0,
        0,
        1
      ],
      "name": "04fe7c01cb174188bb0e69d26f3bedb6fbx",
      "extras": {
        "name": "04fe7c01cb174188bb0e69d26f3bedb6.fbx"
      },
      "children": [
        3
      ]
    },
    {
      "name": "RootNode_(model_correction_matrix)",
      "extras": {
        "name": "RootNode (model correction matrix)"
      },
      "children": [
        4
      ]
    },
    {
      "matrix": [
        1,
        0,
        0,
        0,
        0,
        2.220446049250313e-16,
        -1,
        0,
        0,
        1,
        2.220446049250313e-16,
        0,
        0,
        0,
        0,
        1
      ],
      "name": "RootNode_(gltf_orientation_matrix)",
      "extras": {
        "name": "RootNode (gltf orientation matrix)"
      },
      "children": [
        5
      ]
    },
    {
      "matrix": [
        0.003,
        0,
        0,
        0,
        0,
        0.003,
        0,
        0,
        0,
        0,
        0.003,
        0,
        0,
        0,
        0,
        1
      ],
      "name": "scene.gltf",
      "children": [
        6
      ]
    }
  ],
  "bufferViews": [
    {
      "buffer": 0,
      "byteOffset": 0,
      "byteLength": 29472,
      "target": 34962,
      "byteStride": 12
    },
    {
      "buffer": 0,
      "byteOffset": 29472,
      "byteLength": 29472,
      "target": 34962,
      "byteStride": 12
    },
    {
      "buffer": 0,
      "byteOffset": 58944,
      "byteLength": 50592,
      "target": 34963
    },
    {
      "buffer": 0,
      "byteOffset": 109536,
      "byteLength": 41316,
      "target": 34962,
      "byteStride": 12
    },
    {
      "buffer": 0,
      "byteOffset": 150852,
      "byteLength": 41316,
      "target": 34962,
      "byteStride": 12
    },
    {
      "buffer": 0,
      "byteOffset": 192168,
      "byteLength": 65136,
      "target": 34963
    }
  ],
  "buffers": [
    {
      "byteLength": 257304,
      "uri": "data:application/octet-stream;base64,"
    }
  ],
  "accessors": [
    {
      "bufferView": 0,
      "componentType": 5126,
      "count": 2456,
      "max": [
        0.9984686374664307,
        0.9991601705551147,
        0.9986964464187622
      ],
      "min": [
        -0.9986077547073364,
        -0.9994276762008667,
        -0.9986964464187622
      ],
      "type": "VEC3"
    },
    {
      "bufferView": 1,
      "componentType": 5126,
      "count": 2456,
      "max": [
        110.03400421142578,
        60.17852020263672,
        79.87960815429688
      ],
      "min": [
        -89.9563980102539,
        -60.05083465576172,
        -79.87956237792969
      ],
      "type": "VEC3"
    },
    {
      "bufferView": 2,
      "componentType": 5125,
      "count": 12648,
      "max": [
        2455
      ],
      "min": [
        0
      ],
      "type": "SCALAR"
    },
    {
      "bufferView": 3,
      "componentType": 5126,
      "count": 3443,
      "max": [
        0.9999541640281677,
        0.9999790787696838,
        0.9998231530189514
      ],
      "min": [
        -0.9999982118606567,
        -0.9999971985816956,
        -0.9998285174369812
      ],
      "type": "VEC3"
    },
    {
      "bufferView": 4,
      "componentType": 5126,
      "count": 3443,
      "max": [
        91.67137145996094,
        206.49542236328125,
        113.21417999267578
      ],
      "min": [
        -76.69786834716797,
        56.3635139465332,
        -113.1974105834961
      ],
      "type": "VEC3"
    },
    {
      "bufferView": 5,
      "componentType": 5125,
      "count": 16284,
      "max": [
        3442
      ],
      "min": [
        0
      ],
      "type": "SCALAR"
    }
  ],
  "materials": [
    {
      "pbrMetallicRoughness": {
        "baseColorFactor": [
          0.588235,
          0.588235,
          0.588235,
          1
        ],
        "metallicFactor": 1,
        "roughnessFactor": 0
      },
      "emissiveFactor": [
        0.10588235294117647,
        0.10588235294117647,
        0.10588235294117647
      ],
      "doubleSided": true,
      "name": "01_-_Default"
    },
    {
      "pbrMetallicRoughness": {
        "baseColorFactor": [
          0.996078,
          0.0156863,
          0.0156863,
          1
        ],
        "metallicFactor": 0,
        "roughnessFactor": 0.6
      },
      "emissiveFactor": [
        0.23529411764705882,
        0.011764705882352941,
        0.01568627450980392
      ],
      "doubleSided": true,
      "name": "02_-_Default"
    }
  ],
  "meshes": [
    {
      "primitives": [
        {
          "mode": 4,
          "attributes": {
            "NORMAL": 0,
            "POSITION": 1
          },
          "indices": 2,
          "material": 0
        }
      ]
    },
    {
      "primitives": [
        {
          "mode": 4,
          "attributes": {
            "NORMAL": 3,
            "POSITION": 4
          },
          "indices": 5,
          "material": 1
        }
      ]
    }
  ]
}