{
  "asset": {
    "version": "2.0",
    "generator": "GLTFExporter"
  },
  "scenes": [
    {
      "name": "Scene",
      "nodes": [
        21
      ]
    }
  ],
  "scene": 0,
  "nodes": [
    {
      "name": "Ring_Estofado_0",
      "extras": {
        "name": "Ring_Estofado_0"
      },
      "mesh": 0
    },
    {
      "matrix": [
        -1.3345680627274703e-7,
        -0.8191520419506216,
        -0.5735764396905693,
        0,
        -1.3715885127663088e-7,
        -0.5735764396905542,
        0.819152041950632,
        0,
        -0.9999999999999817,
        1.8799250089962527e-7,
        -3.580627327970376e-8,
        0,
        -0.0083770751953125,
        132.71812438964844,
        114.91680908203125,
        1
      ],
      "name": "Ring",
      "extras": {
        "name": "Ring"
      },
      "children": [
        0
      ]
    },
    {
      "name": "pe_02_pes_0",
      "extras": {
        "name": "pe 02_pes_0"
      },
      "mesh": 1
    },
    {
      "matrix": [
        -1.6292069937584588e-7,
        -0.9999999999999867,
        3.3306690738754706e-16,
        0,
        -1.6292069954237934e-7,
        2.7089441800853826e-14,
        0.9999999999999867,
        0,
        -0.9999999999999732,
        1.629206995423793e-7,
        -1.6292069937584586e-7,
        0,
        6.421886444091797,
        -8.396331787109375,
        3.5109024047851562,
        1
      ],
      "name": "pe_02",
      "extras": {
        "name": "pe 02"
      },
      "children": [
        2
      ]
    },
    {
      "name": "Line001_pernas_0",
      "extras": {
        "name": "Line001_pernas_0"
      },
      "mesh": 2
    },
    {
      "matrix": [
        -1.6292069937584588e-7,
        -0.9999999999999867,
        3.3306690738754706e-16,
        0,
        -1.6292069954237934e-7,
        2.7089441800853826e-14,
        0.9999999999999867,
        0,
        -0.9999999999999732,
        1.629206995423793e-7,
        -1.6292069937584586e-7,
        0,
        6.421886444091797,
        -8.396331787109375,
        3.5109024047851562,
        1
      ],
      "name": "Line001",
      "extras": {
        "name": "Line001"
      },
      "children": [
        4
      ]
    },
    {
      "name": "pe_01_pes_0",
      "extras": {
        "name": "pe 01_pes_0"
      },
      "mesh": 3
    },
    {
      "matrix": [
        -1.6292069937584588e-7,
        -0.9999999999999867,
        3.3306690738754706e-16,
        0,
        -1.6292069954237934e-7,
        2.7089441800853826e-14,
        0.9999999999999867,
        0,
        -0.9999999999999732,
        1.629206995423793e-7,
        -1.6292069937584586e-7,
        0,
        6.421886444091797,
        -8.396331787109375,
        3.5109024047851562,
        1
      ],
      "name": "pe_01",
      "extras": {
        "name": "pe 01"
      },
      "children": [
        6
      ]
    },
    {
      "matrix": [
        1,
        0,
        0,
        0,
        0,
        1,
        0,
        0,
        0,
        0,
        1,
        0,
        -6.430263519287109,
        -7.538453102111816,
        -84.21468353271484,
        1
      ],
      "name": "Group001",
      "extras": {
        "name": "Group001"
      },
      "children": [
        3,
        5,
        7
      ]
    },
    {
      "name": "pe_003_pes_0",
      "extras": {
        "name": "pe 003_pes_0"
      },
      "mesh": 4
    },
    {
      "matrix": [
        -1.6292069937584588e-7,
        -0.9999999999999867,
        7.43849426498855e-15,
        0,
        -1.6292069954237934e-7,
        3.419486915845483e-14,
        0.9999999999999867,
        0,
        -0.9999999999999732,
        1.629206995423793e-7,
        -1.6292069937584586e-7,
        0,
        6.421886444091797,
        -8.396330833435059,
        3.5109024047851562,
        1
      ],
      "name": "pe_003",
      "extras": {
        "name": "pe 003"
      },
      "children": [
        9
      ]
    },
    {
      "name": "Line002_pernas_0",
      "extras": {
        "name": "Line002_pernas_0"
      },
      "mesh": 5
    },
    {
      "matrix": [
        -1.6292069937584588e-7,
        -0.9999999999999867,
        7.43849426498855e-15,
        0,
        -1.6292069954237934e-7,
        3.419486915845483e-14,
        0.9999999999999867,
        0,
        -0.9999999999999732,
        1.629206995423793e-7,
        -1.6292069937584586e-7,
        0,
        6.421886444091797,
        -8.396330833435059,
        3.5109024047851562,
        1
      ],
      "name": "Line002",
      "extras": {
        "name": "Line002"
      },
      "children": [
        11
      ]
    },
    {
      "name": "pe_004_pes_0",
      "extras": {
        "name": "pe 004_pes_0"
      },
      "mesh": 6
    },
    {
      "matrix": [
        -1.6292069937584588e-7,
        -0.9999999999999867,
        7.43849426498855e-15,
        0,
        -1.6292069954237934e-7,
        3.419486915845483e-14,
        0.9999999999999867,
        0,
        -0.9999999999999732,
        1.629206995423793e-7,
        -1.6292069937584586e-7,
        0,
        6.421886444091797,
        -8.396330833435059,
        3.5109024047851562,
        1
      ],
      "name": "pe_004",
      "extras": {
        "name": "pe 004"
      },
      "children": [
        13
      ]
    },
    {
      "matrix": [
        -1,
        0,
        0,
        0,
        0,
        0.9999999999999964,
        -8.742278380136781e-8,
        0,
        0,
        8.742278380136781e-8,
        0.9999999999999964,
        0,
        -6.483119964599609,
        -7.538453102111816,
        -84.21468353271484,
        1
      ],
      "name": "Group002",
      "extras": {
        "name": "Group002"
      },
      "children": [
        10,
        12,
        14
      ]
    },
    {
      "matrix": [
        0.22497612237930298,
        0,
        0,
        0,
        0,
        9.990946842255565e-17,
        -0.22497612237930292,
        0,
        0,
        0.22497612237930292,
        9.990946842255565e-17,
        0,
        -3.9948952198028564,
        37.62915802001953,
        -3.617595672607422,
        1
      ],
      "name": "RingChair",
      "extras": {
        "name": "RingChair"
      },
      "children": [
        1,
        8,
        15
      ]
    },
    {
      "name": "RootNode",
      "extras": {
        "name": "RootNode"
      },
      "children": [
        16
      ]
    },
    {
      "matrix": [
        1,
        0,
        0,
        0,
        0,
        2.220446049250313e-16,
        1,
        0,
        0,
        -1,
        2.220446049250313e-16,
        0,
        0,
        0,
        0,
        1
      ],
      "name": "9d63cccc07bb451f8210e1b2f59f2068fbx",
      "extras": {
        "name": "9d63cccc07bb451f8210e1b2f59f2068.fbx"
      },
      "children": [
        17
      ]
    },
    {
      "name": "RootNode_(model_correction_matrix)",
      "extras": {
        "name": "RootNode (model correction matrix)"
      },
      "children": [
        18
      ]
    },
    {
      "matrix": [
        1,
        0,
        0,
        0,
        0,
        2.220446049250313e-16,
        -1,
        0,
        0,
        1,
        2.220446049250313e-16,
        0,
        0,
        0,
        0,
        1
      ],
      "name": "RootNode_(gltf_orientation_matrix)",
      "extras": {
        "name": "RootNode (gltf orientation matrix)"
      },
      "children": [
        19
      ]
    },
    {
      "matrix": [
        0.01,
        0,
        0,
        0,
        0,
        0.01,
        0,
        0,
        0,
        0,
        0.01,
        0,
        0,
        0,
        0,
        1
      ],
      "name": "scene.gltf",
      "children": [
        20
      ]
    }
  ],
  "bufferViews": [
    {
      "buffer": 0,
      "byteOffset": 0,
      "byteLength": 39084,
      "target": 34962,
      "byteStride": 12
    },
    {
      "buffer": 0,
      "byteOffset": 39084,
      "byteLength": 39084,
      "target": 34962,
      "byteStride": 12
    },
    {
      "buffer": 0,
      "byteOffset": 78168,
      "byteLength": 26056,
      "target": 34962,
      "byteStride": 8
    },
    {
      "buffer": 0,
      "byteOffset": 104224,
      "byteLength": 26056,
      "target": 34962,
      "byteStride": 8
    },
    {
      "buffer": 0,
      "byteOffset": 130280,
      "byteLength": 63408,
      "target": 34963
    },
    {
      "buffer": 0,
      "byteOffset": 193688,
      "byteLength": 4320,
      "target": 34962,
      "byteStride": 12
    },
    {
      "buffer": 0,
      "byteOffset": 198008,
      "byteLength": 4320,
      "target": 34962,
      "byteStride": 12
    },
    {
      "buffer": 0,
      "byteOffset": 202328,
      "byteLength": 1680,
      "target": 34963
    },
    {
      "buffer": 0,
      "byteOffset": 204008,
      "byteLength": 6504,
      "target": 34962,
      "byteStride": 12
    },
    {
      "buffer": 0,
      "byteOffset": 210512,
      "byteLength": 6504,
      "target": 34962,
      "byteStride": 12
    },
    {
      "buffer": 0,
      "byteOffset": 217016,
      "byteLength": 6288,
      "target": 34963
    },
    {
      "buffer": 0,
      "byteOffset": 223304,
      "byteLength": 4344,
      "target": 34962,
      "byteStride": 12
    },
    {
      "buffer": 0,
      "byteOffset": 227648,
      "byteLength": 4344,
      "target": 34962,
      "byteStride": 12
    },
    {
      "buffer": 0,
      "byteOffset": 231992,
      "byteLength": 1680,
      "target": 34963
    },
    {
      "buffer": 0,
      "byteOffset": 233672,
      "byteLength": 4320,
      "target": 34962,
      "byteStride": 12
    },
    {
      "buffer": 0,
      "byteOffset": 237992,
      "byteLength": 4320,
      "target": 34962,
      "byteStride": 12
    },
    {
      "buffer": 0,
      "byteOffset": 242312,
      "byteLength": 1680,
      "target": 34963
    },
    {
      "buffer": 0,
      "byteOffset": 243992,
      "byteLength": 6504,
      "target": 34962,
      "byteStride": 12
    },
    {
      "buffer": 0,
      "byteOffset": 250496,
      "byteLength": 6504,
      "target": 34962,
      "byteStride": 12
    },
    {
      "buffer": 0,
      "byteOffset": 257000,
      "byteLength": 6288,
      "target": 34963
    },
    {
      "buffer": 0,
      "byteOffset": 263288,
      "byteLength": 4344,
      "target": 34962,
      "byteStride": 12
    },
    {
      "buffer": 0,
      "byteOffset": 267632,
      "byteLength": 4344,
      "target": 34962,
      "byteStride": 12
    },
    {
      "buffer": 0,
      "byteOffset": 271976,
      "byteLength": 1680,
      "target": 34963
    }
  ],
  "buffers": [
    {
      "byteLength": 273656,
      "uri": "data:application/octet-stream;base64,"
    }
  ],
  "accessors": [
    {
      "bufferView": 0,
      "componentType": 5126,
      "count": 3257,
      "max": [
        0.999679446220398,
        0.9998255372047424,
        0.9961892366409302
      ],
      "min": [
        -0.9967811107635498,
        -0.9995898604393005,
        -0.9962054491043091
      ],
      "type": "VEC3"
    },
    {
      "bufferView": 1,
      "componentType": 5126,
      "count": 3257,
      "max": [
        257.02020263671875,
        47.39794158935547,
        143.51907348632812
      ],
      "min": [
        -27.25865936279297,
        -54.537899017333984,
        -143.53585815429688
      ],
      "type": "VEC3"
    },
    {
      "bufferView": 2,
      "componentType": 5126,
      "count": 3257,
      "max": [
        0,
        0
      ],
      "min": [
        0,
        0
      ],
      "type": "VEC2"
    },
    {
      "bufferView": 3,
      "componentType": 5126,
      "count": 3257,
      "max": [
        0,
        0
      ],
      "min": [
        0,
        0
      ],
      "type": "VEC2"
    },
    {
      "bufferView": 4,
      "componentType": 5125,
      "count": 15852,
      "max": [
        3256
      ],
      "min": [
        0
      ],
      "type": "SCALAR"
    },
    {
      "bufferView": 5,
      "componentType": 5126,
      "count": 360,
      "max": [
        0.9190856218338013,
        0.984965443611145,
        0.9577288627624512
      ],
      "min": [
        -0.9243350028991699,
        -0.9825595021247864,
        -0.950150728225708
      ],
      "type": "VEC3"
    },
    {
      "bufferView": 6,
      "componentType": 5126,
      "count": 360,
      "max": [
        -129.93038940429688,
        -76.8780288696289,
        108.99993896484375
      ],
      "min": [
        -137.66961669921875,
        -82.62256622314453,
        101.07850646972656
      ],
      "type": "VEC3"
    },
    {
      "bufferView": 7,
      "componentType": 5125,
      "count": 420,
      "max": [
        359
      ],
      "min": [
        0
      ],
      "type": "SCALAR"
    },
    {
      "bufferView": 8,
      "componentType": 5126,
      "count": 542,
      "max": [
        0.9634500741958618,
        0.9895510077476501,
        0.9763129949569702
      ],
      "min": [
        -0.9634501338005066,
        -0.9893881678581238,
        -0.9763129353523254
      ],
      "type": "VEC3"
    },
    {
      "bufferView": 9,
      "componentType": 5126,
      "count": 542,
      "max": [
        120.40245819091797,
        75.60078430175781,
        108.53013610839844
      ],
      "min": [
        -137.19598388671875,
        -82.14970397949219,
        -95.68451690673828
      ],
      "type": "VEC3"
    },
    {
      "bufferView": 10,
      "componentType": 5125,
      "count": 1572,
      "max": [
        541
      ],
      "min": [
        0
      ],
      "type": "SCALAR"
    },
    {
      "bufferView": 11,
      "componentType": 5126,
      "count": 362,
      "max": [
        0.9520692825317383,
        0.9406320452690125,
        0.9430466294288635
      ],
      "min": [
        -0.9456228017807007,
        -0.9406371712684631,
        -0.9483249187469482
      ],
      "type": "VEC3"
    },
    {
      "bufferView": 12,
      "componentType": 5126,
      "count": 362,
      "max": [
        120.876953125,
        -77.62088012695312,
        -88.02510070800781
      ],
      "min": [
        112.78329467773438,
        -82.42507934570312,
        -96.15613555908203
      ],
      "type": "VEC3"
    },
    {
      "bufferView": 13,
      "componentType": 5125,
      "count": 420,
      "max": [
        361
      ],
      "min": [
        0
      ],
      "type": "SCALAR"
    },
    {
      "bufferView": 14,
      "componentType": 5126,
      "count": 360,
      "max": [
        0.9190856218338013,
        0.984965443611145,
        0.9577288627624512
      ],
      "min": [
        -0.9243350028991699,
        -0.9825595021247864,
        -0.950150728225708
      ],
      "type": "VEC3"
    },
    {
      "bufferView": 15,
      "componentType": 5126,
      "count": 360,
      "max": [
        -129.93038940429688,
        -76.8780288696289,
        108.99993896484375
      ],
      "min": [
        -137.66961669921875,
        -82.62256622314453,
        101.07850646972656
      ],
      "type": "VEC3"
    },
    {
      "bufferView": 16,
      "componentType": 5125,
      "count": 420,
      "max": [
        359
      ],
      "min": [
        0
      ],
      "type": "SCALAR"
    },
    {
      "bufferView": 17,
      "componentType": 5126,
      "count": 542,
      "max": [
        0.9634500741958618,
        0.9895510077476501,
        0.9763129949569702
      ],
      "min": [
        -0.9634501338005066,
        -0.9893881678581238,
        -0.9763129353523254
      ],
      "type": "VEC3"
    },
    {
      "bufferView": 18,
      "componentType": 5126,
      "count": 542,
      "max": [
        120.40245819091797,
        75.60078430175781,
        108.53013610839844
      ],
      "min": [
        -137.19598388671875,
        -82.14970397949219,
        -95.68451690673828
      ],
      "type": "VEC3"
    },
    {
      "bufferView": 19,
      "componentType": 5125,
      "count": 1572,
      "max": [
        541
      ],
      "min": [
        0
      ],
      "type": "SCALAR"
    },
    {
      "bufferView": 20,
      "componentType": 5126,
      "count": 362,
      "max": [
        0.9520692825317383,
        0.9406320452690125,
        0.9430466294288635
      ],
      "min": [
        -0.9456228017807007,
        -0.9406371712684631,
        -0.9483249187469482
      ],
      "type": "VEC3"
    },
    {
      "bufferView": 21,
      "componentType": 5126,
      "count": 362,
      "max": [
        120.876953125,
        -77.62088012695312,
        -88.02510070800781
      ],
      "min": [
        112.78329467773438,
        -82.42507934570312,
        -96.15613555908203
      ],
      "type": "VEC3"
    },
    {
      "bufferView": 22,
      "componentType": 5125,
      "count": 420,
      "max": [
        361
      ],
      "min": [
        0
      ],
      "type": "SCALAR"
    }
  ],
  "materials": [
    {
      "pbrMetallicRoughness": {
        "metallicFactor": 0,
        "roughnessFactor": 0.6,
        "baseColorTexture": {
          "index": 0
        }
      },
      "occlusionTexture": {
        "index": 1,
        "texCoord": 1
      },
      "doubleSided": true,
      "name": "Estofado"
    },
    {
      "pbrMetallicRoughness": {
        "baseColorFactor": [
          0.06,
          0.06,
          0.06,
          1
        ],
        "metallicFactor": 0,
        "roughnessFactor": 0.6
      },
      "doubleSided": true,
      "name": "material"
    },
    {
      "pbrMetallicRoughness": {
        "baseColorFactor": [
          0.51,
          0.51,
          0.51,
          1
        ],
        "metallicFactor": 1,
        "roughnessFactor": 0.6
      },
      "doubleSided": true,
      "name": "pernas"
    }
  ],
  "textures": [
    {
      "sampler": 0,
      "source": 0
    },
    {
      "sampler": 1,
      "source": 1
    }
  ],
  "samplers": [
    {
      "magFilter": 9729,
      "minFilter": 9987,
      "wrapS": 10497,
      "wrapT": 10497
    },
    {
      "magFilter": 9729,
      "minFilter": 9987,
      "wrapS": 10497,
      "wrapT": 10497
    }
  ],
  "images": [
    {
      "mimeType": "image/jpeg",
      "uri": "data:image/jpeg;base64,"
    },
    {
      "mimeType": "image/jpeg",
      "uri": "data:image/jpeg;base64,"
    }
  ],
  "meshes": [
    {
      "primitives": [
        {
          "mode": 4,
          "attributes": {
            "NORMAL": 0,
            "POSITION": 1,
            "TEXCOORD_0": 2,
            "TEXCOORD_1": 3
          },
          "indices": 4,
          "material": 0
        }
      ]
    },
    {
      "primitives": [
        {
          "mode": 4,
          "attributes": {
            "NORMAL": 5,
            "POSITION": 6
          },
          "indices": 7,
          "material": 1
        }
      ]
    },
    {
      "primitives": [
        {
          "mode": 4,
          "attributes": {
            "NORMAL": 8,
            "POSITION": 9
          },
          "indices": 10,
          "material": 2
        }
      ]
    },
    {
      "primitives": [
        {
          "mode": 4,
          "attributes": {
            "NORMAL": 11,
            "POSITION": 12
          },
          "indices": 13,
          "material": 1
        }
      ]
    },
    {
      "primitives": [
        {
          "mode": 4,
          "attributes": {
            "NORMAL": 14,
            "POSITION": 15
          },
          "indices": 16,
          "material": 1
        }
      ]
    },
    {
      "primitives": [
        {
          "mode": 4,
          "attributes": {
            "NORMAL": 17,
            "POSITION": 18
          },
          "indices": 19,
          "material": 2
        }
      ]
    },
    {
      "primitives": [
        {
          "mode": 4,
          "attributes": {
            "NORMAL": 20,
            "POSITION": 21
          },
          "indices": 22,
          "material": 1
        }
      ]
    }
  ]
}